<?xml version="1.0" encoding="UTF-8"?>
<svg width="1920px" height="351px" viewBox="0 0 1920 351" version="1.1" xmlns="http://www.w3.org/2000/svg" xmlns:xlink="http://www.w3.org/1999/xlink">
    <title>Full HD@1x</title>
    <g id="Full-HD" stroke="none" stroke-width="1" fill="none" fill-rule="evenodd">
        <rect fill="#FFFFFF" x="0" y="0" width="1920" height="351"></rect>
        <rect id="Rectangle-Copy" fill="#F8F5EE" fill-rule="nonzero" x="467.976858" y="0.0097869583" width="350.978697" height="350.978697" rx="30"></rect>
        <path d="M739.189797,79.7784704 C739.189797,132.642882 696.329448,175.499721 643.466206,175.499721 L643.466206,79.7784704 L739.189797,79.7784704 Z" id="Path-Copy" fill="#001E48"></path>
        <path d="M627.514225,271.220971 C583.460549,271.220971 547.748466,235.507134 547.748466,191.452872 L627.514225,191.452872 L627.514225,271.220971 Z" id="Path-Copy-2" fill="#73B4FF"></path>
        <path d="M643.466206,175.499721 C696.329448,175.499721 739.189797,218.356559 739.189797,271.221556 L643.466206,271.221556 L643.466206,175.499721 Z" id="Path-Copy-3" fill="#FF5444"></path>
        <circle id="Oval-Copy" fill="#FFCB00" fill-rule="nonzero" cx="588.625785" cy="119.66252" r="39.8839323"></circle>
        <g id="Group-Copy" fill-rule="nonzero">
            <path d="M59.2327822,350.97879 L350.986209,350.97879 L350.986209,58.9792712 C351.157015,51.1635636 349.739672,43.3946917 346.820166,36.1439398 C343.900661,28.8931879 339.539828,22.3110156 334.002069,16.7978681 C328.464309,11.2847207 321.865442,6.95476015 314.605578,4.07085187 C307.345129,1.1869436 299.575769,-0.1911969 291.767218,0.0213200923 L59.2327822,0.0213200923 C51.43593,-0.146702984 43.6858741,1.26070982 36.445898,4.16042515 C29.2053371,7.06014048 22.6240193,11.3912719 17.0956187,16.8956376 C11.5666333,22.4005888 7.20463105,28.9646123 4.26933173,36.1954591 C1.33403241,43.4263058 -0.113143855,51.175858 0.0137911691,58.9792712 L0.0137911691,292.020253 C-0.157015408,299.835961 1.26032821,307.604833 4.17983377,314.855584 C7.09933933,322.106922 11.4601716,328.688509 16.9979314,334.201656 C22.5356912,339.715389 29.1345576,344.044764 36.395007,346.928672 C43.6548715,349.812581 51.4248159,351.190721 59.2327822,350.97879 Z" id="Path" fill="#D30F4C"></path>
            <path d="M246.942756,176.76932 C257.343743,165.499804 265.047379,152.02321 269.474248,137.354481 C271.00228,130.561864 271.00228,123.515366 269.474248,116.722749 C264.227459,88.7011714 228.11488,83.4666967 188.915373,104.713668 L183.35995,77 L142,99.7865223 L149.716448,134.890618 C153.458497,132.437793 157.657092,130.762296 162.062414,129.964053 C175.334867,129.964053 179.038483,142.896866 170.396131,160.756824 C167.342396,167.580812 163.285306,173.911564 158.358799,179.541093 L166.383881,220.495484 C172.556574,248.209152 208.669153,253.136297 247.86866,231.580835 C287.067585,210.025953 313.611909,169.994713 309.599659,142.896866 C307.595281,150.043289 304.116445,156.692989 299.3856,162.42012 C294.655338,168.147251 288.777304,172.825164 282.129431,176.153499 C266.079267,184.775568 251.263641,184.159747 246.942756,176.153499 L246.942756,176.76932 Z" id="Path" fill="#FFFFFF"></path>
            <path d="M131.651293,196.676376 C118.841608,196.676376 114.877062,183.323624 123.41666,165.623071 C126.873123,157.98732 131.506291,150.963226 137.140665,144.817363 L129.820927,106 L49,149.78561 L72.484038,274 L153,228.661812 L145.985228,191.087097 C141.84806,194.496908 136.905899,196.745509 131.651293,197.608508 L131.651293,196.676376 Z" id="Path" fill="#FFFFFF"></path>
        </g>
        <text id="CMD-Rotterdam-Minoren" font-family="Poppins-SemiBold, Poppins" font-size="100" font-weight="500" fill="#001E48">
            <tspan x="936" y="144">CMD Rotterdam</tspan>
            <tspan x="1746.2" y="144" font-family="Poppins-Regular, Poppins" font-weight="normal"></tspan>
            <tspan x="936" y="284" font-family="Poppins-Regular, Poppins" font-weight="normal">Minoren 2022-2023</tspan>
        </text>
    </g>
</svg>